<svg width="52" height="53" viewBox="0 0 52 53" fill="none" xmlns="http://www.w3.org/2000/svg">
<g clip-path="url(#clip0)">
<path d="M35.7023 14.3232C35.9138 14.3232 36.1271 14.3065 36.3401 14.2731C37.4002 14.1063 38.3313 13.54 38.962 12.6784L42.7894 7.45034C42.9445 7.23845 42.978 6.96197 42.8779 6.71965C42.7777 6.47733 42.5582 6.30373 42.2978 6.2608C42.23 6.24962 40.7289 6.00508 38.896 5.98493C38.309 4.2626 37.6115 2.92263 37.5793 2.86097C37.4577 2.62852 37.2234 2.47517 36.9601 2.45573C36.6972 2.43578 36.4422 2.55326 36.2871 2.76525L32.4597 7.99332C31.829 8.85489 31.5742 9.9085 31.7423 10.9602C31.8667 11.7389 32.2125 12.4472 32.7359 13.0165C32.1565 13.6996 31.1364 14.9425 30.018 16.4893V15.8286C30.018 15.4112 29.677 15.0729 29.2563 15.0729C28.8356 15.0729 28.4946 15.4112 28.4946 15.8286V18.7158C27.8833 19.6652 27.2879 20.6689 26.7615 21.6879V17.4442C26.7615 17.4441 26.7615 17.4439 26.7615 17.4437V16.1416L28.9809 13.9399C29.2784 13.6448 29.2784 13.1663 28.9809 12.8712C28.6834 12.5761 28.2011 12.5761 27.9037 12.8712L26.7613 14.0043V11.6654C28.6138 11.3111 30.0178 9.69147 30.0178 7.7518V1.29038C30.0178 1.02851 29.8811 0.785282 29.6566 0.647547C29.432 0.509813 29.1517 0.497319 28.9155 0.614499C28.8539 0.645028 27.4956 1.32282 25.9997 2.37462C24.5045 1.32322 23.1463 0.645532 23.0838 0.614499C22.8475 0.497319 22.5671 0.509914 22.3427 0.647547C22.1181 0.785282 21.9814 1.02851 21.9814 1.29038V7.7518C21.9814 9.69147 23.3854 11.3112 25.2379 11.6654V15.6196L23.2817 13.6789C22.9842 13.3838 22.5019 13.3838 22.2045 13.6789C21.9071 13.974 21.9071 14.4525 22.2045 14.7475L25.238 17.7569V21.6879C23.2951 17.9274 20.4126 14.3709 19.2636 13.0165C19.787 12.4472 20.1329 11.7389 20.2573 10.9602C20.4254 9.9085 20.1705 8.85489 19.5398 7.99332L15.7125 2.76525C15.5574 2.55326 15.3024 2.43588 15.0394 2.45573C14.7762 2.47517 14.5419 2.62852 14.4202 2.86097C14.3877 2.92263 13.6903 4.2627 13.1033 5.98503C11.2713 6.00539 9.76945 6.24962 9.70151 6.2608C9.4411 6.30373 9.22152 6.47733 9.12148 6.71965C9.02134 6.96197 9.05486 7.23845 9.20994 7.45034L13.0373 12.6784C13.668 13.54 14.5991 14.1062 15.6593 14.2731C15.8723 14.3066 16.0854 14.3232 16.2971 14.3232C16.9029 14.3232 17.496 14.1867 18.0398 13.9241C18.2751 14.2018 18.6002 14.5924 18.985 15.073H18.3162C17.8956 15.073 17.5545 15.4113 17.5545 15.8287C17.5545 16.246 17.8956 16.5843 18.3162 16.5843H20.1561C21.269 18.069 22.5588 19.9371 23.6075 21.8645C22.3686 20.6567 20.9918 19.573 19.4884 18.6238C14.9268 15.7439 10.8168 15.107 10.644 15.0813C10.4249 15.0488 10.202 15.1126 10.034 15.2561C9.86594 15.3996 9.76935 15.6087 9.76935 15.8287C9.76935 15.9495 9.78611 18.8332 11.2389 22.8483C12.5507 26.4738 15.3374 31.7383 21.1673 36.3831V39.1523L17.9365 51.1718C17.8754 51.3986 17.9242 51.6407 18.0684 51.8269C18.2125 52.0131 18.4358 52.1222 18.6724 52.1222H33.3268C33.5635 52.1222 33.7867 52.0131 33.9308 51.8269C34.075 51.6407 34.1238 51.3987 34.0627 51.1718L30.832 39.1523V36.3831C36.6617 31.7383 39.4485 26.4738 40.7604 22.8483C42.2132 18.8332 42.2299 15.9495 42.2299 15.8287C42.2299 15.6087 42.1332 15.3996 41.9652 15.2561C41.7972 15.1125 41.5747 15.0486 41.3551 15.0813C41.2543 15.0964 38.8477 15.4656 35.6791 16.9124C33.603 17.8603 30.9078 19.4209 28.3852 21.8772C29.4353 19.9458 30.7284 18.0725 31.8437 16.5843H33.6829C34.1036 16.5843 34.4446 16.246 34.4446 15.8287C34.4446 15.4113 34.1036 15.073 33.6829 15.073H33.0146C33.3993 14.5925 33.7242 14.2019 33.9595 13.9242C34.5034 14.1867 35.0965 14.3232 35.7023 14.3232ZM40.7967 7.60036L39.6465 9.17146C39.5923 8.65428 39.4937 8.10052 39.3467 7.50747C39.8831 7.5256 40.38 7.56137 40.7967 7.60036ZM12.3527 9.17146L11.2023 7.60006C11.6186 7.56107 12.1154 7.5255 12.6525 7.50757C12.5055 8.10062 12.4069 8.65428 12.3527 9.17146ZM17.7546 12.3384C17.2153 12.727 16.5559 12.8839 15.8977 12.7804C15.2396 12.6768 14.6615 12.3252 14.2699 11.7903C13.1776 10.2983 14.3362 6.77245 15.2384 4.6897L18.3071 8.88138C19.1154 9.98558 18.8676 11.5364 17.7546 12.3384ZM28.4944 2.57331V4.51197C28.1447 4.12617 27.7353 3.73645 27.2663 3.34339C27.7109 3.04536 28.1341 2.7847 28.4944 2.57331ZM23.5048 7.7518V2.57119C25.4686 3.7305 28.4945 5.90775 28.4945 7.7518C28.4945 9.11655 27.3753 10.2268 25.9997 10.2268C24.6242 10.2268 23.5048 9.11655 23.5048 7.7518ZM12.6962 22.4023C11.7948 19.9315 11.4722 17.8948 11.3568 16.772C12.7773 17.1153 15.6309 17.9799 18.6705 19.8988C21.1885 21.4886 23.3269 23.4779 25.0258 25.8118C26.9915 28.5119 28.3731 31.689 29.142 35.2649H27.3678C26.3937 31.0257 24.4766 27.4171 21.6625 24.5325C21.37 24.2326 20.8878 24.2247 20.5854 24.5151C20.2831 24.8053 20.2753 25.2838 20.5679 25.5836C23.1108 28.1902 24.8679 31.4443 25.8018 35.2649H22.1966C16.617 30.8456 13.9506 25.8413 12.6962 22.4023ZM29.3085 36.7762V38.4956H22.6906V36.7762H29.3085ZM32.3354 50.6108H29.1089L28.9801 49.6515C28.9245 49.2379 28.5414 48.947 28.1244 49.0023C27.7074 49.0574 27.4145 49.4375 27.47 49.8512L27.5721 50.6107H19.664L22.5142 40.0068H26.1469L27.0358 46.6204C27.0867 47.0003 27.4139 47.2763 27.7899 47.2763C27.8234 47.2763 27.8573 47.2741 27.8914 47.2696C28.3084 47.2145 28.6013 46.8344 28.5458 46.4207L27.6837 40.0068H29.485L32.3354 50.6108ZM36.2677 18.3075C38.1089 17.4621 39.694 17.0019 40.6423 16.7725C40.5268 17.8957 40.2041 19.932 39.303 22.4023C38.107 25.6812 35.6281 30.3833 30.5638 34.6444C29.8309 31.3961 28.6093 28.4592 26.9207 25.8857C29.8488 21.8323 33.6028 19.5309 36.2677 18.3075ZM33.6922 8.88138L36.7614 4.689C37.6644 6.77073 38.8238 10.2954 37.7294 11.7903C37.3377 12.3252 36.7596 12.6768 36.1015 12.7804C35.4433 12.8838 34.7839 12.727 34.2448 12.3384C33.1316 11.5364 32.8838 9.98568 33.6922 8.88138Z" fill="#AE7C78"/>
<path d="M19.1329 22.317C18.5945 21.9146 18.028 21.5301 17.4489 21.1742C17.0912 20.9542 16.6217 21.0636 16.4001 21.4184C16.1785 21.7732 16.2887 22.239 16.6463 22.4588C17.1862 22.7908 17.7144 23.1493 18.2163 23.5241C18.3536 23.6267 18.5144 23.6763 18.6739 23.6763C18.905 23.6763 19.1332 23.5724 19.283 23.3752C19.5362 23.0418 19.4688 22.568 19.1329 22.317Z" fill="#AE7C78"/>
</g>
<defs>
<clipPath id="clip0">
<rect width="52" height="51.5875" fill="white" transform="translate(0 0.534668)"/>
</clipPath>
</defs>
</svg>
