<svg width="82" height="53" viewBox="0 0 82 53" fill="none" xmlns="http://www.w3.org/2000/svg">
<path d="M80.3317 24.7397C79.4827 23.7301 78.3247 23.0739 76.9971 22.8287L76.3735 14.3837C76.9886 14.3778 77.5132 13.9357 77.6204 13.3299L77.8609 11.969C78.1186 10.5103 77.7591 9.07043 76.8744 8.01866C75.9908 6.96801 74.6972 6.38921 73.2316 6.38921H63.8449L64.3018 3.80395C64.4315 3.06967 64.2436 2.3365 63.7865 1.79288C63.3339 1.25466 62.6533 0.945923 61.9193 0.945923H15.7138C14.3474 0.945923 13.0897 2.0066 12.8503 3.36106L8.76232 26.495C8.63983 27.1889 9.10411 27.8506 9.7995 27.9728C9.87446 27.986 9.9491 27.9924 10.0229 27.9924C10.6317 27.9924 11.1713 27.5568 11.2805 26.9379L15.3686 3.80395C15.3956 3.65165 15.5921 3.49728 15.7136 3.49728L61.7592 3.49744L57.6952 26.495C57.5726 27.1889 58.0368 27.8506 58.7324 27.9728C59.427 28.0949 60.0909 27.6318 60.2134 26.9379L60.5082 25.2703H75.798C75.7985 25.2703 75.7991 25.2703 75.7998 25.2703C75.8004 25.2703 75.801 25.2703 75.8015 25.2703C76.8583 25.2704 77.7714 25.6643 78.3728 26.3793C78.7867 26.8715 79.0282 27.4842 79.0862 28.162H74.8391C74.2186 28.162 73.6878 28.6065 73.5799 29.2163L73.0991 31.938C72.9053 33.0345 73.179 34.1209 73.8498 34.9187C74.5114 35.7057 75.5157 36.1568 76.6049 36.1568H77.8087L76.8167 41.7702H73.441C73.2189 40.6475 72.7326 39.6148 71.9956 38.7388C70.6879 37.1835 68.7635 36.3271 66.5773 36.3271C63.0718 36.3271 59.6898 38.6156 58.1065 41.7704H57.5925L59.2517 32.3812C59.3742 31.6873 58.9101 31.0256 58.2145 30.9034C57.5194 30.7809 56.856 31.2443 56.7335 31.9383L54.996 41.7706H31.3271C31.1049 40.6478 30.6186 39.6153 29.8816 38.7391C28.5738 37.1838 26.6495 36.3274 24.4632 36.3274C20.9577 36.3274 17.5757 38.6159 15.9924 41.7707L8.65929 41.7706L9.1703 38.879H14.9166C15.6227 38.879 16.1953 38.3078 16.1953 37.6031C16.1953 36.8986 15.6229 36.3273 14.9166 36.3273H1.27865C0.572576 36.3273 0 36.8984 0 37.6031C0 38.3076 0.572416 38.879 1.27865 38.879H6.57393L6.11699 41.4642C5.98732 42.1985 6.1752 42.9317 6.63231 43.4753C7.08495 44.0135 7.7655 44.3222 8.49948 44.3222H15.1621C14.8155 46.4864 15.3364 48.5252 16.6403 50.0754C17.9481 51.6307 19.8724 52.487 22.0587 52.487C26.4102 52.487 30.5735 48.9619 31.3392 44.6286C31.3572 44.5259 31.3714 44.4239 31.3858 44.3221H57.2762C56.9295 46.4861 57.4504 48.5249 58.7544 50.0752C60.0622 51.6305 61.9865 52.4868 64.1728 52.4868C68.5244 52.4868 72.6876 48.9617 73.4533 44.6284C73.4713 44.5258 73.4855 44.4238 73.4999 44.3219H77.8899C78.5105 44.3219 79.0413 43.8774 79.1491 43.2676L81.5539 29.6594C81.8802 27.8122 81.4462 26.065 80.3317 24.7397ZM60.9594 22.7192L62.4323 14.3842H73.8098L74.4253 22.7192H60.9594ZM75.3425 11.5261L75.2883 11.8327H62.883L63.394 8.94089H73.2316C73.9281 8.94089 74.5262 9.19583 74.9154 9.65878C75.3189 10.1384 75.4707 10.8014 75.3425 11.5261ZM28.821 44.1859C28.2608 47.3564 25.2271 49.9356 22.0587 49.9356C20.6414 49.9356 19.4127 49.4028 18.5991 48.4356C17.7621 47.4401 17.4431 46.0884 17.701 44.6291C18.2613 41.4585 21.2949 38.8793 24.4633 38.8793C25.8806 38.8793 27.1093 39.4121 27.9229 40.3795C28.7599 41.3746 29.0789 42.7265 28.821 44.1859ZM70.9349 44.1859C70.3746 47.3564 67.3411 49.9356 64.1726 49.9356C62.7554 49.9356 61.5267 49.4028 60.7131 48.4354C59.8761 47.44 59.5571 46.0882 59.815 44.6289C60.3751 41.4583 63.4088 38.8791 66.5773 38.8791C67.9944 38.8791 69.2233 39.4119 70.0368 40.3793C70.8739 41.3746 71.1928 42.7265 70.9349 44.1859ZM78.2596 33.6059H76.6049V33.6058C76.2637 33.6058 75.9884 33.4928 75.8087 33.2792C75.6222 33.0574 75.5541 32.7386 75.6173 32.3817L75.912 30.7143H78.7706L78.2596 33.6059Z" fill="#AE7C78"/>
<path d="M25.369 42.6177C24.9164 42.0795 24.2358 41.7708 23.5017 41.7708C22.1353 41.7708 20.8776 42.8314 20.6382 44.1859C20.5085 44.9202 20.6964 45.6533 21.1535 46.1969C21.6061 46.7352 22.2867 47.0439 23.0206 47.0439C24.387 47.0439 25.6448 45.9831 25.8842 44.6289C26.014 43.8945 25.8263 43.1615 25.369 42.6177Z" fill="#AE7C78"/>
<path d="M67.4825 42.6177C67.0297 42.0795 66.3492 41.7708 65.6154 41.7708C64.249 41.7708 62.9913 42.8314 62.752 44.1857C62.6224 44.9202 62.8099 45.6532 63.2672 46.1969C63.7198 46.7352 64.4004 47.0439 65.1344 47.0439C66.5007 47.0439 67.7585 45.9831 67.9979 44.6289C68.1277 43.8945 67.9398 43.1615 67.4825 42.6177Z" fill="#AE7C78"/>
<path d="M51.5755 36.3275H35.3738C34.6677 36.3275 34.0952 36.8987 34.0952 37.6034C34.0952 38.3079 34.6676 38.8792 35.3738 38.8792H51.5755C52.2815 38.8792 52.8541 38.308 52.8541 37.6034C52.8539 36.8987 52.2815 36.3275 51.5755 36.3275Z" fill="#AE7C78"/>
<path d="M28.5549 30.884H4.96834C4.26227 30.884 3.6897 31.4552 3.6897 32.1599C3.6897 32.8644 4.26195 33.4357 4.96834 33.4357H28.5549C29.261 33.4357 29.8336 32.8646 29.8336 32.1599C29.8336 31.4552 29.2612 30.884 28.5549 30.884Z" fill="#AE7C78"/>
<path d="M52.9714 25.7514L48.2377 21.6689C47.7034 21.2084 46.8961 21.2668 46.4342 21.7999C45.9723 22.333 46.0312 23.1386 46.5655 23.5995L48.7007 25.4411H16.2804C15.5743 25.4411 15.0017 26.0122 15.0017 26.7169C15.0017 27.4214 15.5741 27.9927 16.2804 27.9927H47.8899L45.2527 29.736C44.6638 30.1249 44.5029 30.9167 44.8929 31.5041C45.1388 31.8747 45.5455 32.0754 45.9599 32.0754C46.2023 32.0754 46.4476 32.0066 46.6648 31.8629L52.8415 27.7805C53.1751 27.5602 53.3858 27.1967 53.4113 26.7982C53.4368 26.3996 53.2742 26.0122 52.9714 25.7514Z" fill="#AE7C78"/>
</svg>
