<svg width="59" height="53" viewBox="0 0 59 53" fill="none" xmlns="http://www.w3.org/2000/svg">
<path d="M51.9961 10.0541H49.2855C48.8133 10.0541 48.4307 10.4349 48.4307 10.9048C48.4307 11.3747 48.8133 11.7555 49.2855 11.7555H51.9961C52.4683 11.7555 52.8509 11.3747 52.8509 10.9048C52.8509 10.4349 52.4682 10.0541 51.9961 10.0541Z" fill="#AE7C78"/>
<path d="M36.7866 14.1582C32.007 14.1582 28.1185 18.0301 28.1185 22.7891C28.1185 27.5464 32.0069 31.4168 36.7866 31.4168C41.5681 31.4168 45.4581 27.5464 45.4581 22.7891C45.4581 18.0301 41.5681 14.1582 36.7866 14.1582V14.1582ZM36.7866 29.7154C32.9496 29.7154 29.828 26.6083 29.828 22.7892C29.828 18.9684 32.9496 15.8597 36.7866 15.8597C40.6254 15.8597 43.7486 18.9683 43.7486 22.7892C43.7486 26.6082 40.6255 29.7154 36.7866 29.7154Z" fill="#AE7C78"/>
<path d="M55.6827 5.51142H45.2983L44.2931 2.74635C44.131 2.30101 43.6378 0.945923 42.2443 0.945923H28.947C27.5534 0.945923 27.0601 2.30101 26.898 2.74669L25.8929 5.51142H17.4377V3.45475C17.4377 2.3347 16.5222 1.42348 15.3969 1.42348H11.5887C10.4652 1.42348 9.55115 2.3347 9.55115 3.45475V5.54817C8.01632 5.78253 6.83708 7.10676 6.83708 8.7004V26.1022L2.96441 26.8499C1.33636 27.1657 0.269946 28.74 0.586894 30.3584L4.42481 50.0669C4.70495 51.4928 5.96886 52.487 7.38037 52.487C7.5682 52.487 7.75875 52.4694 7.94988 52.4328L16.2988 50.8205C16.7622 50.7312 17.065 50.2846 16.9751 49.8233C16.8852 49.3621 16.4364 49.0604 15.9732 49.1502L7.62575 50.7621C6.92233 50.8972 6.23954 50.4383 6.10278 49.7418L2.26486 30.0337C2.1281 29.3353 2.58865 28.6563 3.29059 28.52L24.1076 24.5009C24.4452 24.4366 24.79 24.5076 25.0787 24.7016C25.3672 24.8957 25.5619 25.1876 25.627 25.5251L29.4681 45.2296C29.6048 45.928 29.1443 46.607 28.4423 46.7434L20.0901 48.3556C19.6267 48.4451 19.3239 48.8916 19.4137 49.3528C19.5036 49.814 19.9522 50.1151 20.4156 50.0262L28.7685 48.4136C30.3966 48.0978 31.463 46.5234 31.146 44.905L30.1073 39.5766H39.6483C40.1204 39.5766 40.503 39.1958 40.503 38.7259C40.503 38.2559 40.1204 37.8751 39.6483 37.8751H29.7757L28.875 33.2545C31.137 34.9484 33.9091 35.8876 36.7864 35.8876C42.4905 35.8876 47.3581 32.2581 49.1812 27.1983H57.1739V36.3875C57.1739 37.2078 56.505 37.8751 55.6827 37.8751H43.8345C43.3623 37.8751 42.9797 38.2559 42.9797 38.7259C42.9797 39.1958 43.3623 39.5766 43.8345 39.5766H55.6827C57.4475 39.5766 58.8834 38.146 58.8834 36.3875V8.7004C58.8834 6.94194 57.4475 5.51142 55.6827 5.51142V5.51142ZM28.5054 3.326C28.6691 2.87578 28.8178 2.64755 28.947 2.64755H42.2443C42.4051 2.64755 42.5732 3.01655 42.6857 3.32566L43.4804 5.51142H27.7108L28.5054 3.326ZM23.627 22.7891C23.627 22.813 23.6282 22.8367 23.6283 22.8604L17.4377 24.0556V20.0818H23.9102C23.725 20.9557 23.627 21.8611 23.627 22.7891V22.7891ZM11.2606 3.45475C11.2606 3.27597 11.4108 3.12499 11.5886 3.12499H15.3967C15.5794 3.12499 15.7281 3.27291 15.7281 3.45475V5.51142H11.2606V3.45475ZM8.54662 8.7004C8.54662 7.88027 9.21562 7.21293 10.0378 7.21293H10.4058H15.7281V24.3856L12.8344 24.9443V15.3491C12.8344 14.5319 12.1665 13.8672 11.3455 13.8672H8.54662V8.7004ZM8.54662 15.5687H11.1248V25.2744L8.54662 25.7721V15.5687ZM36.7866 34.1859C33.5682 34.1859 30.5007 32.8358 28.3334 30.4749L27.3056 25.2025C27.1545 24.4194 26.7035 23.7409 26.0359 23.2918C25.8164 23.1442 25.5823 23.028 25.3391 22.9432C25.3384 22.8918 25.3363 22.8405 25.3363 22.7891C25.3363 16.5032 30.4729 11.3892 36.7865 11.3892C43.102 11.3892 48.2399 16.5033 48.2399 22.7891C48.2401 29.0733 43.1021 34.1859 36.7866 34.1859ZM57.1739 25.4966H49.666C49.8514 24.6227 49.9495 23.7172 49.9495 22.7891C49.9495 21.8611 49.8514 20.9557 49.6662 20.0818H57.1739V25.4966ZM57.1739 18.3803H49.1819C47.3591 13.3186 42.4912 9.68773 36.7866 9.68773C31.0835 9.68773 26.2168 13.3188 24.3944 18.3803H17.4376V7.21293H26.4924H44.6985H55.6826C56.5049 7.21293 57.1738 7.88027 57.1738 8.7004V18.3803H57.1739Z" fill="#AE7C78"/>
<path d="M26.4253 44.0244C26.6259 43.7262 26.6988 43.3769 26.631 43.0433L23.7259 28.5137C23.5715 27.7538 22.7746 27.2895 21.9105 27.4547L6.05432 30.5156C5.18678 30.6825 4.62229 31.4125 4.77057 32.1851L7.6769 46.7045C7.7414 47.0405 7.94085 47.3361 8.23876 47.5371C8.49941 47.713 8.81989 47.8054 9.15177 47.8054C9.26517 47.8054 9.37994 47.7946 9.49414 47.7726L25.347 44.7117C25.7965 44.6254 26.1895 44.3748 26.4253 44.0244V44.0244ZM8.13802 40.2563L6.50917 32.161L22.1101 29.1493L23.0566 33.8834L21.0563 34.2701C17.2413 35.0064 15.9748 36.1435 14.7499 37.2431C13.5636 38.3081 12.3382 39.4073 8.13802 40.2563V40.2563ZM9.29617 46.0777L8.89796 44.0331L8.47366 41.9243C13.1389 40.9791 14.5995 39.6697 15.895 38.5066C17.0424 37.4765 18.0334 36.5867 21.382 35.9405L23.3902 35.5522L24.8925 43.0663L9.29617 46.0777Z" fill="#AE7C78"/>
</svg>
