<svg width="67" height="52" viewBox="0 0 67 52" fill="none" xmlns="http://www.w3.org/2000/svg">
<path d="M55 39.3865H59.154C59.6864 39.3865 60.118 38.9571 60.118 38.4271V5.34456C60.118 4.81457 59.6864 4.38513 59.154 4.38513H7.73994C7.20757 4.38513 6.77597 4.81457 6.77597 5.34456V38.4271C6.77597 38.9571 7.20757 39.3865 7.73994 39.3865H50.4886C51.021 39.3865 51.4526 38.9571 51.4526 38.4271C51.4526 37.8971 51.021 37.4677 50.4886 37.4677H8.7039V6.304H58.19V37.4677H55C54.4676 37.4677 54.036 37.8971 54.036 38.4271C54.036 38.9571 54.4676 39.3865 55 39.3865Z" fill="#AE7C78"/>
<path d="M65.3863 41.6022H64.2733V3.79398C64.2733 1.84006 62.6755 0.250458 60.7117 0.250458H16.0172C15.4848 0.250458 15.0532 0.679902 15.0532 1.2099C15.0532 1.73989 15.4848 2.16933 16.0172 2.16933H60.7117C61.6125 2.16933 62.3453 2.89812 62.3453 3.79398V41.6022H4.54853V3.79398C4.54853 2.89812 5.2814 2.16933 6.18213 2.16933H11.5109C12.0433 2.16933 12.4749 1.73989 12.4749 1.2099C12.4749 0.679902 12.0433 0.250458 11.5109 0.250458H6.18213C4.21834 0.250458 2.6206 1.84006 2.6206 3.79398V41.6022H1.50754C0.975179 41.6022 0.543579 42.0317 0.543579 42.5617V47.7311C0.543579 49.9701 2.3737 51.7915 4.62308 51.7915H9.35422C9.88659 51.7915 10.3182 51.362 10.3182 50.832C10.3182 50.3021 9.88659 49.8726 9.35422 49.8726H4.62308C3.43676 49.8726 2.47151 48.9119 2.47151 47.7311V43.5211H26.2464L26.764 45.1697C27.231 46.6571 28.5968 47.6564 30.1625 47.6564H36.7311C38.2968 47.6564 39.6626 46.6571 40.1297 45.1697L40.6472 43.5211H64.4224V47.7311C64.4224 48.9119 63.4571 49.8726 62.2708 49.8726H13.8656C13.3332 49.8726 12.9016 50.3021 12.9016 50.832C12.9016 51.362 13.3332 51.7915 13.8656 51.7915H62.2708C64.5202 51.7915 66.3503 49.9701 66.3503 47.7311V42.5617C66.3503 42.0317 65.9187 41.6022 65.3863 41.6022V41.6022ZM38.2896 44.5972C38.0755 45.2793 37.4492 45.7376 36.7312 45.7376H30.1626C29.4447 45.7376 28.8184 45.2793 28.6042 44.5972L28.2663 43.5211H38.6275L38.2896 44.5972Z" fill="#AE7C78"/>
<path d="M24.748 23.3624C25.2075 23.3624 25.6031 23.0396 25.6932 22.5911L26.8618 16.7758C26.9184 16.494 26.8451 16.2017 26.6621 15.9794C26.4789 15.7572 26.2054 15.6282 25.9166 15.6282H18.5159C17.9836 15.6282 17.552 16.0577 17.552 16.5877C17.552 17.1177 17.9836 17.5471 18.5159 17.5471H24.7407L23.9577 21.4435H16.4628L15.1795 14.4762C15.0955 14.0206 14.6967 13.6899 14.2313 13.6899H11.8944C11.362 13.6899 10.9304 14.1193 10.9304 14.6493C10.9304 15.1793 11.362 15.6088 11.8944 15.6088H13.4281L14.6957 22.4902V26.5383C14.6957 27.0683 15.1273 27.4977 15.6596 27.4977H15.7047C15.6763 27.604 15.6596 27.7152 15.6596 27.8304C15.6596 28.5441 16.241 29.1228 16.958 29.1228C17.5463 29.1228 18.0424 28.7332 18.2021 28.1993C18.24 28.0779 18.2604 27.9488 18.2604 27.815C18.2604 27.7053 18.2452 27.5994 18.2194 27.4977H20.3788C20.3739 27.5169 20.368 27.5358 20.364 27.5554C20.3446 27.6442 20.3338 27.736 20.3338 27.8306C20.3338 28.5443 20.9152 29.1229 21.6322 29.1229C22.2604 29.1229 22.7842 28.6788 22.9045 28.089C22.9237 28.0007 22.9344 27.9091 22.9344 27.8151C22.9344 27.7055 22.9192 27.5995 22.8934 27.4978H23.1903C23.7226 27.4978 24.1542 27.0684 24.1542 26.5384C24.1542 26.0084 23.7226 25.5789 23.1903 25.5789H16.6237V23.3626H24.748V23.3624Z" fill="#AE7C78"/>
<path d="M37.7867 11.5474C37.7867 11.0174 37.3551 10.588 36.8227 10.588H32.668C32.1356 10.588 31.704 11.0174 31.704 11.5474V15.6828C31.704 16.2129 32.1356 16.6423 32.668 16.6423H36.8227C37.3551 16.6423 37.7867 16.2129 37.7867 15.6828V11.5474ZM35.8587 14.7235H33.632V12.5071H35.8587V14.7235Z" fill="#AE7C78"/>
<path d="M40.9773 16.6423H49.8061C50.3384 16.6423 50.77 16.2129 50.77 15.683C50.77 15.153 50.3384 14.7236 49.8061 14.7236H40.9773C40.4449 14.7236 40.0133 15.153 40.0133 15.683C40.0133 16.2129 40.4449 16.6423 40.9773 16.6423V16.6423Z" fill="#AE7C78"/>
<path d="M40.9773 12.5069H54.9995C55.5319 12.5069 55.9635 12.0775 55.9635 11.5474C55.9635 11.0174 55.5319 10.588 54.9995 10.588H40.9773C40.4449 10.588 40.0133 11.0174 40.0133 11.5474C40.0133 12.0775 40.4449 12.5069 40.9773 12.5069Z" fill="#AE7C78"/>
<path d="M37.7866 19.818C37.7866 19.288 37.355 18.8585 36.8227 18.8585H32.668C32.1356 18.8585 31.704 19.288 31.704 19.818V23.9532C31.704 24.4832 32.1356 24.9127 32.668 24.9127H36.8227C37.355 24.9127 37.7866 24.4832 37.7866 23.9532V19.818ZM35.8587 22.9938H33.6319V20.7774H35.8587V22.9938Z" fill="#AE7C78"/>
<path d="M40.9773 24.9126H49.8061C50.3384 24.9126 50.77 24.4832 50.77 23.9533C50.77 23.4233 50.3384 22.9939 49.8061 22.9939H40.9773C40.4449 22.9939 40.0133 23.4233 40.0133 23.9533C40.0133 24.4832 40.4449 24.9126 40.9773 24.9126V24.9126Z" fill="#AE7C78"/>
<path d="M40.9773 20.7777H54.9995C55.5319 20.7777 55.9635 20.3482 55.9635 19.8181C55.9635 19.288 55.5319 18.8585 54.9995 18.8585H40.9773C40.4449 18.8585 40.0133 19.288 40.0133 19.8181C40.0133 20.3482 40.4449 20.7777 40.9773 20.7777Z" fill="#AE7C78"/>
<path d="M36.8227 27.1293H32.668C32.1356 27.1293 31.704 27.5588 31.704 28.0888V32.224C31.704 32.754 32.1356 33.1834 32.668 33.1834H36.8227C37.355 33.1834 37.7866 32.754 37.7866 32.224V28.0888C37.7866 27.5589 37.355 27.1293 36.8227 27.1293ZM35.8587 31.2645H33.6319V29.0482H35.8587V31.2645Z" fill="#AE7C78"/>
<path d="M40.9773 31.2642C40.4449 31.2642 40.0133 31.6937 40.0133 32.2238C40.0133 32.7539 40.4449 33.1834 40.9773 33.1834H49.8061C50.3384 33.1834 50.77 32.7539 50.77 32.2238C50.77 31.6937 50.3384 31.2642 49.8061 31.2642H40.9773Z" fill="#AE7C78"/>
<path d="M55.9635 28.0887C55.9635 27.5587 55.5319 27.1293 54.9995 27.1293H40.9773C40.4449 27.1293 40.0133 27.5587 40.0133 28.0887C40.0133 28.6186 40.4449 29.048 40.9773 29.048H54.9995C55.5319 29.048 55.9635 28.6186 55.9635 28.0887Z" fill="#AE7C78"/>
</svg>
