<svg width="70" height="52" viewBox="0 0 70 52" fill="none" xmlns="http://www.w3.org/2000/svg">
<path d="M21.9317 14.8621H10.2231C8.81116 14.8621 7.66241 16.0055 7.66241 17.4108V26.611C7.66241 28.0163 8.81116 29.1596 10.2231 29.1596H21.9316C23.3435 29.1596 24.4922 28.0163 24.4922 26.611V17.4108C24.4922 16.0055 23.3436 14.8621 21.9317 14.8621V14.8621ZM22.4521 17.4108V20.9956H17.0973V16.8926H21.9316C22.2187 16.8927 22.4521 17.1251 22.4521 17.4108ZM9.70258 26.611V17.4108C9.70258 17.1251 9.93611 16.8927 10.2231 16.8927H15.0572V27.129H10.2231C9.93611 27.129 9.70258 26.8966 9.70258 26.611ZM21.9317 27.129H17.0975V23.0262H22.4522V26.6108C22.4521 26.8966 22.2187 27.129 21.9317 27.129Z" fill="#AE7C78"/>
<path d="M7.66241 40.8894C7.66241 41.4502 8.11914 41.9046 8.68249 41.9046H38.7003C39.2637 41.9046 39.7204 41.4502 39.7204 40.8894C39.7204 40.3286 39.2637 39.8742 38.7003 39.8742H8.68249C8.11914 39.8742 7.66241 40.3286 7.66241 40.8894Z" fill="#AE7C78"/>
<path d="M8.6825 43.741C8.11914 43.741 7.66241 44.1955 7.66241 44.7563C7.66241 45.3172 8.11914 45.7717 8.6825 45.7717H23.6915C24.2548 45.7717 24.7115 45.3172 24.7115 44.7563C24.7115 44.1955 24.2548 43.741 23.6915 43.741H8.6825Z" fill="#AE7C78"/>
<path d="M26.7982 36.0458V33.5912C26.7982 33.0304 26.3415 32.5759 25.7781 32.5759C25.2148 32.5759 24.7581 33.0304 24.7581 33.5912V36.0458C24.7581 36.6066 25.2148 37.0611 25.7781 37.0611C26.3415 37.0611 26.7982 36.6066 26.7982 36.0458Z" fill="#AE7C78"/>
<path d="M31.4608 36.0458V33.5912C31.4608 33.0304 31.0041 32.5759 30.4407 32.5759C29.8774 32.5759 29.4207 33.0304 29.4207 33.5912V36.0458C29.4207 36.6066 29.8774 37.0611 30.4407 37.0611C31.0041 37.0611 31.4608 36.6066 31.4608 36.0458Z" fill="#AE7C78"/>
<path d="M36.1232 36.0458V33.5912C36.1232 33.0304 35.6664 32.5759 35.1031 32.5759C34.5397 32.5759 34.083 33.0304 34.083 33.5912V36.0458C34.083 36.6066 34.5397 37.0611 35.1031 37.0611C35.6664 37.0611 36.1232 36.6066 36.1232 36.0458Z" fill="#AE7C78"/>
<path d="M40.7856 36.0458V33.5912C40.7856 33.0304 40.3289 32.5759 39.7656 32.5759C39.2022 32.5759 38.7455 33.0304 38.7455 33.5912V36.0458C38.7455 36.6066 39.2022 37.0611 39.7656 37.0611C40.3289 37.0611 40.7856 36.6066 40.7856 36.0458Z" fill="#AE7C78"/>
<path d="M46.5162 33.5912V36.0458C46.5162 36.6066 46.9729 37.0611 47.5363 37.0611C48.0996 37.0611 48.5563 36.6066 48.5563 36.0458V33.5912C48.5563 33.0304 48.0996 32.5759 47.5363 32.5759C46.9729 32.5759 46.5162 33.0305 46.5162 33.5912Z" fill="#AE7C78"/>
<path d="M51.1786 33.5912V36.0458C51.1786 36.6066 51.6353 37.0611 52.1987 37.0611C52.762 37.0611 53.2187 36.6066 53.2187 36.0458V33.5912C53.2187 33.0304 52.762 32.5759 52.1987 32.5759C51.6353 32.5759 51.1786 33.0305 51.1786 33.5912Z" fill="#AE7C78"/>
<path d="M55.8411 33.5912V36.0458C55.8411 36.6066 56.2978 37.0611 56.8612 37.0611C57.4245 37.0611 57.8813 36.6066 57.8813 36.0458V33.5912C57.8813 33.0304 57.4245 32.5759 56.8612 32.5759C56.2978 32.5759 55.8411 33.0305 55.8411 33.5912Z" fill="#AE7C78"/>
<path d="M8.6825 37.0611C9.24585 37.0611 9.70258 36.6066 9.70258 36.0458V33.5912C9.70258 33.0304 9.24585 32.5759 8.6825 32.5759C8.11914 32.5759 7.66241 33.0304 7.66241 33.5912V36.0458C7.66241 36.6066 8.11914 37.0611 8.6825 37.0611Z" fill="#AE7C78"/>
<path d="M14.3651 36.0458V33.5912C14.3651 33.0304 13.9084 32.5759 13.345 32.5759C12.7816 32.5759 12.3249 33.0304 12.3249 33.5912V36.0458C12.3249 36.6066 12.7816 37.0611 13.345 37.0611C13.9084 37.0611 14.3651 36.6066 14.3651 36.0458Z" fill="#AE7C78"/>
<path d="M19.0275 36.0458V33.5912C19.0275 33.0304 18.5708 32.5759 18.0075 32.5759C17.4441 32.5759 16.9874 33.0304 16.9874 33.5912V36.0458C16.9874 36.6066 17.4441 37.0611 18.0075 37.0611C18.5708 37.0611 19.0275 36.6066 19.0275 36.0458Z" fill="#AE7C78"/>
<path d="M69.6582 10.5739C69.6582 4.88639 65.0092 0.259369 59.295 0.259369C54.1768 0.259369 49.9163 3.97235 49.0824 8.83357H22.687C22.1237 8.83357 21.6669 9.28801 21.6669 9.84886C21.6669 10.4097 22.1237 10.8641 22.687 10.8641H48.9359C49.0919 16.4535 53.7269 20.8863 59.2911 20.8883C59.2924 20.8883 59.2937 20.8885 59.295 20.8885C59.2964 20.8885 59.295 20.8885 59.295 20.8885C59.2961 20.8885 59.2972 20.8883 59.2984 20.8883C60.7886 20.8878 62.2333 20.5615 63.4829 20.0112V37.0853C63.4829 37.6462 63.9396 38.1006 64.503 38.1006C65.0664 38.1006 65.5231 37.6462 65.5231 37.0853V18.8118C68.0326 16.9277 69.6582 13.9364 69.6582 10.5739ZM59.295 2.28995C63.8844 2.28995 67.618 6.00619 67.618 10.5739C67.618 15.1504 63.8738 18.8577 59.295 18.8577C54.6159 18.8577 50.7895 14.9814 50.9806 10.2383C51.1941 5.67628 54.9379 2.28995 59.295 2.28995V2.28995Z" fill="#AE7C78"/>
<path d="M56.4732 14.4812C56.8185 15.0382 57.5965 15.1297 58.0626 14.666L64.6605 8.09898C65.0589 7.70234 65.0589 7.0596 64.6605 6.66309C64.2621 6.26672 63.6162 6.26672 63.218 6.66309L57.5321 12.3225L55.3319 8.77409C55.0363 8.2969 54.4076 8.14894 53.9282 8.44324C53.4487 8.73781 53.3 9.36336 53.5958 9.84041L56.4732 14.4812Z" fill="#AE7C78"/>
<path d="M64.5029 40.8079C63.9395 40.8079 63.4828 41.2624 63.4828 41.8232V46.0105C63.4828 48.0835 61.7884 49.7699 59.7055 49.7699H5.83819C3.75533 49.7699 2.06091 48.0835 2.06091 46.0105V14.6237C2.06091 12.5508 3.75533 10.8642 5.83819 10.8642H17.9265C18.4899 10.8642 18.9466 10.4097 18.9466 9.8489C18.9466 9.28806 18.4899 8.83362 17.9265 8.83362H5.83819C2.63052 8.83362 0.020752 11.431 0.020752 14.6237V46.0104C0.020752 49.203 2.63052 51.8004 5.83819 51.8004H59.7055C62.9132 51.8004 65.5229 49.2029 65.5229 46.0104V41.8231C65.5229 41.2624 65.0662 40.8079 64.5029 40.8079V40.8079Z" fill="#AE7C78"/>
<path d="M59.1153 27.5987V24.5973C59.1153 23.7367 58.4117 23.0365 57.547 23.0365H47.1299C46.2651 23.0365 45.5615 23.7367 45.5615 24.5973V27.5987C45.5615 28.4593 46.2651 29.1596 47.1299 29.1596H57.547C58.4117 29.1596 59.1153 28.4593 59.1153 27.5987V27.5987ZM57.0751 27.129H47.6016V25.0671H57.0751V27.129Z" fill="#AE7C78"/>
</svg>
