<svg width="38" height="52" viewBox="0 0 38 52" fill="none" xmlns="http://www.w3.org/2000/svg">
<path d="M35.2898 37.1844C34.6072 33.7814 31.3998 33.2022 31.3896 33.1975V33.1976C31.3552 33.1876 31.6839 33.2696 23.5673 31.2672V30.9931H29.5422C30.7738 30.9931 31.7757 29.9958 31.7757 28.77V17.4284C31.8761 17.0067 31.8763 16.5683 31.7757 16.1457V12.0064C31.7757 11.5892 31.436 11.2513 31.017 11.2513C30.5979 11.2513 30.2584 11.5892 30.2584 12.0064V14.1734C29.8579 13.9354 29.4004 13.7648 28.9074 13.6803C28.7294 12.8934 28.0728 12.2713 27.2401 12.1625C26.3721 12.0489 25.7143 11.5453 25.285 10.6657C25.084 10.2539 24.6903 9.98337 24.2322 9.9419C23.7736 9.90062 23.3394 10.0956 23.0676 10.4639C21.7635 12.2303 18.1381 16.1925 11.8778 16.1923C11.4015 16.1923 11.0785 16.1698 10.9661 16.1648C9.81569 16.0958 8.84301 17.0107 8.84301 18.158V19.893C8.84301 22.666 9.99886 25.3544 12.014 27.2687C12.6823 27.9036 13.4196 28.4332 14.2057 28.8555V29.4831H8.25811C7.86316 29.4831 7.54183 29.1632 7.54183 28.7702V11.8029C7.54183 6.3022 12.048 1.7696 17.4912 1.7696C17.5088 1.7696 17.5264 1.7697 17.5439 1.7698C19.4941 1.78017 21.7458 2.33152 23.2802 3.174C24.2527 3.70823 24.8534 3.28362 25.8137 3.28362C28.1577 3.28362 30.0361 5.6825 30.2612 7.84008C30.2626 7.87169 30.266 7.99823 30.2664 8.48304C30.2669 9.21197 31.094 9.26794 31.0256 9.23754C31.4448 9.23723 31.784 8.89879 31.7837 8.48183C31.7836 8.34774 31.7847 7.82196 31.7721 7.69996C31.467 4.69637 28.8929 1.77342 25.8138 1.77342C24.6113 1.77342 24.4238 2.07683 24.0133 1.85174C22.2734 0.896319 19.7372 0.271281 17.5521 0.259604C11.2538 0.219035 6.02441 5.4413 6.02441 11.8028V28.7701C6.02441 29.996 7.02641 30.9932 8.25801 30.9932H14.2057V31.2673L6.414 33.1893C6.40369 33.1918 6.39357 33.1947 6.38336 33.1976L5.81413 33.3648C5.79704 33.3698 5.78025 33.3753 5.76356 33.3815C4.7477 33.7588 2.97075 34.7545 2.48314 37.1848C0.174086 48.7295 0.271283 48.2365 0.26572 48.2761C-0.0124185 50.2341 0.972395 51.8004 3.34143 51.8004H11.5455C11.9646 51.8004 12.3042 51.4624 12.3042 51.0453C12.3042 50.6281 11.9645 50.2902 11.5455 50.2902H8.69059V43.168C8.69059 42.7509 8.35096 42.4129 7.93193 42.4129C7.5129 42.4129 7.17327 42.751 7.17327 43.168V50.2902H3.34143C2.33366 50.2902 1.74845 49.9673 1.73874 48.9136C1.73449 48.3996 1.71417 48.9006 3.97124 37.4801C4.31097 35.7866 5.54651 35.0792 6.27038 34.8053L6.79652 34.6509L11.271 33.5471C16.2485 39.3833 15.9538 39.074 16.2414 39.3533C17.9028 40.9663 20.2733 40.8524 21.8335 39.0287L26.5189 33.5512L30.9763 34.6508C31.1052 34.7098 33.3241 35.0982 33.8018 37.4798C36.0394 48.8014 36.0386 48.3972 36.0344 48.913C36.0267 49.945 35.4657 50.2903 34.4317 50.2903H30.627V43.168C30.627 42.7509 30.2875 42.4129 29.8684 42.4129C29.4493 42.4129 29.1097 42.751 29.1097 43.168V50.2902H15.086C14.6668 50.2902 14.3273 50.6282 14.3273 51.0453C14.3273 51.4625 14.6669 51.8004 15.086 51.8004H34.4318C36.3061 51.8004 37.5345 50.7739 37.5518 48.9251C37.5582 48.0616 37.5065 48.4742 35.2898 37.1844ZM28.9571 15.2382C29.5906 15.4257 30.0793 15.8413 30.2585 16.3544V17.2196C30.0793 17.7329 29.5906 18.1484 28.9571 18.3359V15.2382ZM28.9571 20.0244V19.885C29.4312 19.7978 29.8715 19.6307 30.2585 19.4007V28.7701C30.2585 29.1632 29.9372 29.4829 29.5423 29.4829H23.5673V28.8993C26.784 27.2255 28.9571 23.8742 28.9571 20.0244ZM13.0617 26.1761C11.345 24.5452 10.3605 22.2551 10.3605 19.8928C10.4056 18.2487 10.2512 18.0495 10.5148 17.8024C10.6081 17.7149 10.7336 17.664 10.8749 17.6721C16.3147 17.998 20.9935 15.6179 24.0826 11.6327C24.9155 13.0883 26.137 13.5415 27.0426 13.66C27.2689 13.6896 27.4398 13.8819 27.4398 14.1075C27.4398 16.1964 27.4398 17.9506 27.4398 20.0245C27.4398 27.5379 18.4026 31.2495 13.0617 26.1761ZM20.678 38.0497C19.6209 39.2855 18.1412 39.2822 17.0867 38.0434L15.5038 36.1838H22.274L20.678 38.0497ZM23.566 34.6735H14.2184L12.9146 33.1418L15.1472 32.5909C15.4858 32.5075 15.7233 32.1976 15.7233 31.8505L15.7234 29.5145C17.8109 30.207 20.0155 30.1995 22.05 29.536C22.0642 31.9495 22.0174 31.8942 22.0922 32.1071C22.175 32.3425 22.3721 32.5282 22.6259 32.5908L24.8732 33.1452L23.566 34.6735Z" fill="#AE7C78"/>
</svg>
