<svg width="83" height="52" viewBox="0 0 83 52" fill="none" xmlns="http://www.w3.org/2000/svg">
<path d="M81.3178 24.0531C80.4667 23.0435 79.3057 22.3874 77.9748 22.1421L77.3496 13.6971C77.9663 13.6912 78.4922 13.2491 78.5996 12.6433L78.8408 11.2825C79.0991 9.82378 78.7387 8.38387 77.8518 7.3321C76.966 6.28145 75.6691 5.70265 74.1999 5.70265H64.7896L65.2476 3.11739C65.3776 2.38311 65.1893 1.64995 64.731 1.10632C64.2773 0.568103 63.595 0.259369 62.8592 0.259369H16.5375C15.1677 0.259369 13.9068 1.32005 13.6668 2.6745L9.56858 25.8084C9.44578 26.5023 9.91123 27.164 10.6084 27.2862C10.6835 27.2994 10.7583 27.3058 10.8324 27.3058C11.4427 27.3058 11.9836 26.8702 12.0931 26.2513L16.1915 3.11739C16.2185 2.96509 16.4155 2.81073 16.5373 2.81073L62.6986 2.81089L58.6244 25.8084C58.5015 26.5023 58.9669 27.164 59.6642 27.2862C60.3605 27.4083 61.0262 26.9452 61.149 26.2513L61.4444 24.5837H76.7727C76.7732 24.5837 76.7738 24.5837 76.7745 24.5837C76.7751 24.5837 76.7757 24.5837 76.7762 24.5837C77.8357 24.5838 78.751 24.9777 79.354 25.6927C79.7689 26.185 80.011 26.7977 80.0692 27.4754H75.8114C75.1893 27.4754 74.6572 27.9199 74.5491 28.5298L74.067 31.2514C73.8727 32.3479 74.1471 33.4343 74.8196 34.2321C75.4828 35.0191 76.4897 35.4702 77.5816 35.4702H78.7885L77.7939 41.0836H74.4098C74.1871 39.9609 73.6996 38.9282 72.9607 38.0522C71.6497 36.4969 69.7205 35.6405 67.5288 35.6405C64.0146 35.6405 60.624 37.929 59.0368 41.0838H58.5214L60.1848 31.6946C60.3076 31.0007 59.8423 30.339 59.145 30.2168C58.4482 30.0943 57.7831 30.5577 57.6603 31.2517L55.9184 41.084H32.19C31.9673 39.9612 31.4798 38.9287 30.7409 38.0525C29.4298 36.4972 27.5007 35.6408 25.3089 35.6408C21.7946 35.6408 18.4041 37.9293 16.8168 41.0841L9.46529 41.084L9.97758 38.1924H15.7384C16.4462 38.1924 17.0202 37.6212 17.0202 36.9165C17.0202 36.212 16.4464 35.6407 15.7384 35.6407H2.0661C1.35826 35.6407 0.784241 36.2118 0.784241 36.9165C0.784241 37.621 1.3581 38.1924 2.0661 38.1924H7.37469L6.9166 40.7776C6.78661 41.5119 6.97496 42.2451 7.43321 42.7887C7.88699 43.3269 8.56925 43.6356 9.30508 43.6356H15.9844C15.637 45.7998 16.1592 47.8386 17.4663 49.3888C18.7774 50.9441 20.7065 51.8004 22.8983 51.8004C27.2608 51.8004 31.4345 48.2752 32.2022 43.942C32.2202 43.8393 32.2345 43.7373 32.2489 43.6355H58.2044C57.8568 45.7995 58.379 47.8382 59.6863 49.3886C60.9974 50.9439 62.9265 51.8002 65.1183 51.8002C69.4808 51.8002 73.6545 48.2751 74.4221 43.9418C74.4402 43.8392 74.4544 43.7372 74.4688 43.6353H78.8699C79.492 43.6353 80.0241 43.1908 80.1322 42.581L82.5431 28.9728C82.8702 27.1257 82.4351 25.3784 81.3178 24.0531ZM61.8968 22.0326L63.3734 13.6976H74.7795L75.3965 22.0326H61.8968ZM76.316 10.8396L76.2617 11.1461H63.8252L64.3375 8.25432H74.1999C74.8981 8.25432 75.4977 8.50927 75.8879 8.97221C76.2924 9.45186 76.4446 10.1148 76.316 10.8396ZM29.6776 43.4993C29.1161 46.6698 26.0748 49.249 22.8983 49.249C21.4775 49.249 20.2457 48.7162 19.4301 47.749C18.591 46.7535 18.2712 45.4018 18.5298 43.9425C19.0915 40.7719 22.1326 38.1927 25.309 38.1927C26.7298 38.1927 27.9617 38.7255 28.7773 39.6929C29.6164 40.688 29.9362 42.0399 29.6776 43.4993ZM71.8974 43.4993C71.3357 46.6698 68.2946 49.249 65.1181 49.249C63.6973 49.249 62.4655 48.7162 61.6499 47.7488C60.8108 46.7534 60.491 45.4016 60.7495 43.9423C61.3111 40.7717 64.3524 38.1925 67.5288 38.1925C68.9495 38.1925 70.1814 38.7253 70.9971 39.6927C71.8362 40.688 72.156 42.0399 71.8974 43.4993ZM79.2405 32.9194H77.5816V32.9192C77.2396 32.9192 76.9636 32.8062 76.7834 32.5926C76.5965 32.3708 76.5282 32.052 76.5915 31.6951L76.887 30.0278H79.7528L79.2405 32.9194Z" fill="#AE7C78"/>
<path d="M26.2167 41.931C25.7629 41.3928 25.0807 41.084 24.3447 41.084C22.9749 41.084 21.7141 42.1448 21.4741 43.4992C21.3441 44.2335 21.5324 44.9667 21.9907 45.5103C22.4444 46.0486 23.1267 46.3573 23.8625 46.3573C25.2322 46.3573 26.4931 45.2965 26.7331 43.9423C26.8633 43.2078 26.6751 42.4748 26.2167 41.931Z" fill="#AE7C78"/>
<path d="M68.4365 41.931C67.9825 41.3928 67.3003 41.084 66.5646 41.084C65.1948 41.084 63.9339 42.1447 63.6941 43.4991C63.5641 44.2335 63.7521 44.9665 64.2105 45.5103C64.6643 46.0486 65.3466 46.3573 66.0824 46.3573C67.4522 46.3573 68.7131 45.2965 68.9531 43.9423C69.0832 43.2078 68.8949 42.4748 68.4365 41.931Z" fill="#AE7C78"/>
<path d="M52.4894 35.6408H36.2471C35.5392 35.6408 34.9652 36.212 34.9652 36.9167C34.9652 37.6213 35.5391 38.1926 36.2471 38.1926H52.4894C53.1972 38.1926 53.7712 37.6214 53.7712 36.9167C53.7711 36.212 53.1972 35.6408 52.4894 35.6408Z" fill="#AE7C78"/>
<path d="M29.4108 30.1975H5.76483C5.05699 30.1975 4.48297 30.7687 4.48297 31.4734C4.48297 32.178 5.05667 32.7493 5.76483 32.7493H29.4108C30.1186 32.7493 30.6926 32.1781 30.6926 31.4734C30.6926 30.7687 30.1188 30.1975 29.4108 30.1975Z" fill="#AE7C78"/>
<path d="M53.8888 25.0646L49.1432 20.9821C48.6075 20.5215 47.7982 20.5799 47.3351 21.1131C46.8721 21.6462 46.9311 22.4518 47.4667 22.9127L49.6073 24.7543H17.1055C16.3976 24.7543 15.8236 25.3254 15.8236 26.0301C15.8236 26.7346 16.3975 27.306 17.1055 27.306H48.7944L46.1506 29.0492C45.5603 29.4382 45.399 30.2299 45.7899 30.8173C46.0365 31.1879 46.4442 31.3886 46.8596 31.3886C47.1026 31.3886 47.3485 31.3199 47.5663 31.1762L53.7585 27.0937C54.093 26.8734 54.3042 26.5099 54.3298 26.1114C54.3554 25.7128 54.1923 25.3254 53.8888 25.0646Z" fill="#AE7C78"/>
</svg>
